<mxfile host="app.diagrams.net" modified="2023-03-11T01:05:48.313Z" agent="5.0 (Windows)" etag="HKOY-Jg18B4YNKeSQ9fK" version="21.0.6" type="github">
  <diagram name="Page-1" id="0pvFzNxyjufNfPHYx8LO">
    <mxGraphModel dx="1195" dy="4152" grid="1" gridSize="13" guides="1" tooltips="1" connect="1" arrows="1" fold="1" page="1" pageScale="1" pageWidth="827" pageHeight="1169" math="0" shadow="0">
      <root>
        <mxCell id="0" />
        <mxCell id="1" parent="0" />
        <mxCell id="t-sDJAVJuDMAuAv1q9ic-111" value="&lt;div style=&quot;&quot;&gt;&lt;font style=&quot;font-size: 12px;&quot;&gt;&lt;b&gt;Management&lt;/b&gt;&lt;/font&gt;&lt;/div&gt;&lt;div style=&quot;&quot;&gt;&lt;b&gt;&lt;font style=&quot;font-size: 12px;&quot;&gt;System&lt;/font&gt;&lt;br&gt;&lt;/b&gt;&lt;/div&gt;" style="whiteSpace=wrap;html=1;aspect=fixed;rounded=1;strokeWidth=2;" vertex="1" parent="1">
          <mxGeometry x="299.72" y="-3390" width="80" height="80" as="geometry" />
        </mxCell>
        <mxCell id="t-sDJAVJuDMAuAv1q9ic-112" value="&lt;div style=&quot;font-size: 13px;&quot;&gt;&lt;font style=&quot;font-size: 13px;&quot;&gt;&lt;b&gt;Bank &lt;br&gt;&lt;/b&gt;&lt;/font&gt;&lt;/div&gt;&lt;div style=&quot;font-size: 13px;&quot;&gt;&lt;b&gt;&lt;font style=&quot;font-size: 13px;&quot;&gt;Account&lt;/font&gt;&lt;br&gt;&lt;/b&gt;&lt;/div&gt;" style="whiteSpace=wrap;html=1;aspect=fixed;rounded=1;strokeWidth=2;" vertex="1" parent="1">
          <mxGeometry x="534.72" y="-3392" width="80" height="80" as="geometry" />
        </mxCell>
        <mxCell id="t-sDJAVJuDMAuAv1q9ic-113" value="&lt;div style=&quot;font-size: 13px;&quot;&gt;&lt;font style=&quot;font-size: 13px;&quot;&gt;&lt;b&gt;Customer&lt;/b&gt;&lt;/font&gt;&lt;/div&gt;&lt;div style=&quot;font-size: 13px;&quot;&gt;&lt;font style=&quot;font-size: 13px;&quot;&gt;&lt;b&gt;Transaction&lt;/b&gt;&lt;/font&gt;&lt;/div&gt;&lt;div style=&quot;font-size: 13px;&quot;&gt;&lt;b&gt;&lt;font style=&quot;font-size: 13px;&quot;&gt;data&lt;/font&gt;&lt;br&gt;&lt;/b&gt;&lt;/div&gt;" style="whiteSpace=wrap;html=1;aspect=fixed;rounded=1;strokeWidth=2;" vertex="1" parent="1">
          <mxGeometry x="727.72" y="-3393" width="80" height="80" as="geometry" />
        </mxCell>
        <mxCell id="t-sDJAVJuDMAuAv1q9ic-114" value="&lt;b&gt;Bank user&lt;/b&gt;" style="shape=umlActor;verticalLabelPosition=bottom;verticalAlign=top;html=1;strokeWidth=2;" vertex="1" parent="1">
          <mxGeometry x="105.72" y="-3390" width="39" height="67" as="geometry" />
        </mxCell>
        <mxCell id="t-sDJAVJuDMAuAv1q9ic-115" value="Options" style="shape=umlFrame;whiteSpace=wrap;html=1;pointerEvents=0;strokeWidth=3;" vertex="1" parent="1">
          <mxGeometry x="54.72" y="-3235" width="533" height="142" as="geometry" />
        </mxCell>
        <mxCell id="t-sDJAVJuDMAuAv1q9ic-116" value="" style="endArrow=open;endFill=1;endSize=12;html=1;rounded=0;strokeWidth=2;" edge="1" parent="1">
          <mxGeometry width="160" relative="1" as="geometry">
            <mxPoint x="119.72" y="-3274" as="sourcePoint" />
            <mxPoint x="327.72" y="-3274" as="targetPoint" />
          </mxGeometry>
        </mxCell>
        <mxCell id="t-sDJAVJuDMAuAv1q9ic-117" value="&lt;div style=&quot;font-size: 11px;&quot;&gt;&lt;font style=&quot;font-size: 11px;&quot;&gt;&lt;b&gt;&lt;font style=&quot;font-size: 11px;&quot;&gt;[If account&lt;/font&gt;&lt;/b&gt;&lt;/font&gt;&lt;/div&gt;&lt;div style=&quot;font-size: 11px;&quot;&gt;&lt;font style=&quot;font-size: 11px;&quot;&gt;&lt;font style=&quot;font-size: 11px;&quot;&gt;&lt;b&gt;is valid]&lt;/b&gt;&lt;/font&gt;&lt;br&gt;&lt;/font&gt;&lt;/div&gt;" style="text;html=1;align=center;verticalAlign=middle;resizable=0;points=[];autosize=1;strokeColor=none;fillColor=none;" vertex="1" parent="1">
          <mxGeometry y="-1172" width="91" height="39" as="geometry" />
        </mxCell>
        <mxCell id="t-sDJAVJuDMAuAv1q9ic-118" value="" style="endArrow=open;endFill=1;endSize=12;html=1;rounded=0;strokeWidth=2;" edge="1" parent="1">
          <mxGeometry width="160" relative="1" as="geometry">
            <mxPoint x="340.72" y="-3262" as="sourcePoint" />
            <mxPoint x="574.72" y="-3262" as="targetPoint" />
          </mxGeometry>
        </mxCell>
        <mxCell id="t-sDJAVJuDMAuAv1q9ic-119" value="&lt;b&gt;&lt;font style=&quot;font-size: 13px;&quot;&gt;Verify Account&lt;/font&gt;&lt;/b&gt;" style="text;html=1;align=center;verticalAlign=middle;resizable=0;points=[];autosize=1;strokeColor=none;fillColor=none;" vertex="1" parent="1">
          <mxGeometry x="397.72" y="-3286" width="117" height="26" as="geometry" />
        </mxCell>
        <mxCell id="t-sDJAVJuDMAuAv1q9ic-120" value="" style="endArrow=none;dashed=1;html=1;rounded=0;entryX=0.5;entryY=1;entryDx=0;entryDy=0;fontSize=28;fontStyle=2;strokeWidth=3;" edge="1" parent="1" target="t-sDJAVJuDMAuAv1q9ic-111">
          <mxGeometry width="50" height="50" relative="1" as="geometry">
            <mxPoint x="339.72" y="-2703" as="sourcePoint" />
            <mxPoint x="579.72" y="-3145" as="targetPoint" />
          </mxGeometry>
        </mxCell>
        <mxCell id="t-sDJAVJuDMAuAv1q9ic-121" value="" style="endArrow=none;dashed=1;html=1;rounded=0;entryX=0.5;entryY=1;entryDx=0;entryDy=0;strokeWidth=3;" edge="1" parent="1">
          <mxGeometry width="50" height="50" relative="1" as="geometry">
            <mxPoint x="574.72" y="-2703" as="sourcePoint" />
            <mxPoint x="574.72" y="-3320" as="targetPoint" />
          </mxGeometry>
        </mxCell>
        <mxCell id="t-sDJAVJuDMAuAv1q9ic-122" value="" style="endArrow=none;dashed=1;html=1;rounded=0;entryX=0.5;entryY=1;entryDx=0;entryDy=0;strokeWidth=3;" edge="1" parent="1" target="t-sDJAVJuDMAuAv1q9ic-113">
          <mxGeometry width="50" height="50" relative="1" as="geometry">
            <mxPoint x="769.72" y="-2703" as="sourcePoint" />
            <mxPoint x="660.72" y="-3145" as="targetPoint" />
          </mxGeometry>
        </mxCell>
        <mxCell id="t-sDJAVJuDMAuAv1q9ic-123" value="&lt;b&gt;&lt;font style=&quot;font-size: 12px;&quot;&gt;Valid Account&lt;/font&gt;&lt;/b&gt;" style="html=1;verticalAlign=bottom;endArrow=open;dashed=1;endSize=8;edgeStyle=elbowEdgeStyle;elbow=vertical;curved=0;rounded=0;strokeWidth=2;" edge="1" parent="1">
          <mxGeometry x="-0.0909" relative="1" as="geometry">
            <mxPoint x="574.72" y="-3210" as="sourcePoint" />
            <mxPoint x="340.72" y="-3210" as="targetPoint" />
            <mxPoint as="offset" />
          </mxGeometry>
        </mxCell>
        <mxCell id="t-sDJAVJuDMAuAv1q9ic-124" value="" style="endArrow=none;dashed=1;html=1;rounded=0;exitX=0.113;exitY=0.975;exitDx=0;exitDy=0;exitPerimeter=0;strokeWidth=3;" edge="1" parent="1">
          <mxGeometry width="50" height="50" relative="1" as="geometry">
            <mxPoint x="52.00300000000013" y="-3160.975" as="sourcePoint" />
            <mxPoint x="574.72" y="-3161" as="targetPoint" />
          </mxGeometry>
        </mxCell>
        <mxCell id="t-sDJAVJuDMAuAv1q9ic-125" value="" style="endArrow=open;endFill=1;endSize=12;html=1;rounded=0;strokeWidth=2;" edge="1" parent="1">
          <mxGeometry width="160" relative="1" as="geometry">
            <mxPoint x="340.72" y="-3184" as="sourcePoint" />
            <mxPoint x="119.72" y="-3184" as="targetPoint" />
          </mxGeometry>
        </mxCell>
        <mxCell id="t-sDJAVJuDMAuAv1q9ic-126" value="&lt;b&gt;&lt;font style=&quot;font-size: 13px;&quot;&gt;&lt;font style=&quot;font-size: 12px;&quot;&gt;Login Account&lt;/font&gt;&lt;/font&gt;&lt;/b&gt;" style="text;html=1;align=center;verticalAlign=middle;resizable=0;points=[];autosize=1;strokeColor=none;fillColor=none;" vertex="1" parent="1">
          <mxGeometry x="165.72" y="-3304" width="104" height="26" as="geometry" />
        </mxCell>
        <mxCell id="t-sDJAVJuDMAuAv1q9ic-127" value="" style="endArrow=none;dashed=1;html=1;rounded=0;fontSize=12;strokeWidth=3;" edge="1" parent="1">
          <mxGeometry width="50" height="50" relative="1" as="geometry">
            <mxPoint x="120.72" y="-2703" as="sourcePoint" />
            <mxPoint x="120.72" y="-3301" as="targetPoint" />
          </mxGeometry>
        </mxCell>
        <mxCell id="t-sDJAVJuDMAuAv1q9ic-128" value="&lt;b&gt;&lt;font style=&quot;font-size: 12px;&quot;&gt;&lt;font style=&quot;font-size: 13px;&quot;&gt;Invalid Account&lt;/font&gt;&lt;/font&gt;&lt;/b&gt;" style="html=1;verticalAlign=bottom;endArrow=open;dashed=1;endSize=8;edgeStyle=elbowEdgeStyle;elbow=vertical;curved=0;rounded=0;strokeWidth=2;" edge="1" parent="1">
          <mxGeometry x="-0.094" relative="1" as="geometry">
            <mxPoint x="574.72" y="-3119" as="sourcePoint" />
            <mxPoint x="340.72" y="-3119" as="targetPoint" />
            <mxPoint as="offset" />
          </mxGeometry>
        </mxCell>
        <mxCell id="t-sDJAVJuDMAuAv1q9ic-129" value="&lt;b&gt;&lt;font style=&quot;font-size: 13px;&quot;&gt;click to order&lt;/font&gt;&lt;/b&gt;" style="text;html=1;align=center;verticalAlign=middle;resizable=0;points=[];autosize=1;strokeColor=none;fillColor=none;" vertex="1" parent="1">
          <mxGeometry x="152.72" y="-3210" width="117" height="26" as="geometry" />
        </mxCell>
        <mxCell id="t-sDJAVJuDMAuAv1q9ic-130" value="" style="endArrow=classic;html=1;rounded=0;fontStyle=1;strokeWidth=2;" edge="1" parent="1">
          <mxGeometry width="50" height="50" relative="1" as="geometry">
            <mxPoint x="340.72" y="-3111" as="sourcePoint" />
            <mxPoint x="119.72" y="-3111" as="targetPoint" />
          </mxGeometry>
        </mxCell>
        <mxCell id="t-sDJAVJuDMAuAv1q9ic-131" value="&lt;div style=&quot;font-size: 11px;&quot; align=&quot;right&quot;&gt;&lt;b&gt;&lt;font style=&quot;font-size: 11px;&quot;&gt;&lt;font style=&quot;font-size: 12px;&quot;&gt;&lt;font style=&quot;font-size: 13px;&quot;&gt;&lt;font style=&quot;font-size: 12px;&quot;&gt;your account is invalid&lt;/font&gt;&lt;/font&gt;&lt;/font&gt;&lt;/font&gt;&lt;/b&gt;&lt;/div&gt;" style="text;html=1;align=right;verticalAlign=middle;resizable=0;points=[];autosize=1;strokeColor=none;fillColor=none;" vertex="1" parent="1">
          <mxGeometry x="143.72" y="-3135" width="156" height="26" as="geometry" />
        </mxCell>
        <mxCell id="t-sDJAVJuDMAuAv1q9ic-132" value="&lt;b&gt;&lt;font style=&quot;font-size: 13px;&quot;&gt;[if not]&lt;/font&gt;&lt;/b&gt;" style="text;html=1;align=center;verticalAlign=middle;resizable=0;points=[];autosize=1;strokeColor=none;fillColor=none;" vertex="1" parent="1">
          <mxGeometry x="1" y="-1128" width="65" height="26" as="geometry" />
        </mxCell>
        <mxCell id="t-sDJAVJuDMAuAv1q9ic-133" value="" style="endArrow=open;endFill=1;endSize=12;html=1;rounded=0;strokeWidth=2;" edge="1" parent="1">
          <mxGeometry width="160" relative="1" as="geometry">
            <mxPoint x="119.72" y="-3041" as="sourcePoint" />
            <mxPoint x="340.72" y="-3041" as="targetPoint" />
          </mxGeometry>
        </mxCell>
        <mxCell id="t-sDJAVJuDMAuAv1q9ic-134" value="&lt;div&gt;&lt;b&gt;Checks Customer&lt;/b&gt;&lt;/div&gt;&lt;div&gt;&lt;b&gt;Transaction&lt;br&gt;&lt;/b&gt;&lt;/div&gt;" style="text;html=1;align=center;verticalAlign=middle;resizable=0;points=[];autosize=1;strokeColor=none;fillColor=none;" vertex="1" parent="1">
          <mxGeometry x="165.72" y="-3080" width="130" height="39" as="geometry" />
        </mxCell>
        <mxCell id="t-sDJAVJuDMAuAv1q9ic-135" value="" style="endArrow=open;endFill=1;endSize=12;html=1;rounded=0;strokeWidth=2;" edge="1" parent="1">
          <mxGeometry width="160" relative="1" as="geometry">
            <mxPoint x="340.72" y="-2989" as="sourcePoint" />
            <mxPoint x="769.72" y="-2989" as="targetPoint" />
          </mxGeometry>
        </mxCell>
        <mxCell id="t-sDJAVJuDMAuAv1q9ic-136" value="&lt;b&gt;&lt;font style=&quot;font-size: 13px;&quot;&gt;&lt;font style=&quot;font-size: 14px;&quot;&gt;&lt;font style=&quot;font-size: 13px;&quot;&gt;Processing&lt;/font&gt;&lt;/font&gt;&lt;/font&gt;&lt;/b&gt;" style="text;html=1;align=center;verticalAlign=middle;resizable=0;points=[];autosize=1;strokeColor=none;fillColor=none;" vertex="1" parent="1">
          <mxGeometry x="614.72" y="-3018" width="91" height="26" as="geometry" />
        </mxCell>
        <mxCell id="t-sDJAVJuDMAuAv1q9ic-137" value="frame" style="shape=umlFrame;whiteSpace=wrap;html=1;pointerEvents=0;strokeWidth=3;" vertex="1" parent="1">
          <mxGeometry x="54.72" y="-2950" width="728" height="182" as="geometry" />
        </mxCell>
        <mxCell id="t-sDJAVJuDMAuAv1q9ic-138" value="&lt;b&gt;&lt;font style=&quot;font-size: 12px;&quot;&gt;&lt;font style=&quot;font-size: 13px;&quot;&gt;All Accommodated&lt;/font&gt;&lt;/font&gt;&lt;/b&gt;" style="html=1;verticalAlign=bottom;endArrow=open;dashed=1;endSize=8;edgeStyle=elbowEdgeStyle;elbow=vertical;curved=0;rounded=0;strokeWidth=2;" edge="1" parent="1">
          <mxGeometry x="-0.5758" y="-6" relative="1" as="geometry">
            <mxPoint x="769.72" y="-2879" as="sourcePoint" />
            <mxPoint x="340.72" y="-2879" as="targetPoint" />
            <Array as="points">
              <mxPoint x="699.72" y="-2879" />
            </Array>
            <mxPoint as="offset" />
          </mxGeometry>
        </mxCell>
        <mxCell id="t-sDJAVJuDMAuAv1q9ic-139" value="" style="endArrow=open;endFill=1;endSize=12;html=1;rounded=0;fontStyle=0;fontSize=12;strokeWidth=2;" edge="1" parent="1">
          <mxGeometry width="160" relative="1" as="geometry">
            <mxPoint x="341.22" y="-2862.5" as="sourcePoint" />
            <mxPoint x="120.22" y="-2862.5" as="targetPoint" />
            <Array as="points">
              <mxPoint x="276.22" y="-2862.5" />
            </Array>
          </mxGeometry>
        </mxCell>
        <mxCell id="t-sDJAVJuDMAuAv1q9ic-140" value="&lt;b&gt;&lt;font style=&quot;font-size: 13px;&quot;&gt;&lt;font style=&quot;font-size: 13px;&quot;&gt;Logout Account&lt;/font&gt;&lt;/font&gt;&lt;/b&gt;" style="text;html=1;align=center;verticalAlign=middle;resizable=0;points=[];autosize=1;strokeColor=none;fillColor=none;" vertex="1" parent="1">
          <mxGeometry x="139.72" y="-2888" width="130" height="26" as="geometry" />
        </mxCell>
        <mxCell id="t-sDJAVJuDMAuAv1q9ic-141" value="" style="endArrow=none;dashed=1;html=1;rounded=0;exitX=0.001;exitY=0.511;exitDx=0;exitDy=0;exitPerimeter=0;entryX=1;entryY=0.5;entryDx=0;entryDy=0;entryPerimeter=0;fontStyle=1;strokeWidth=3;" edge="1" parent="1" source="t-sDJAVJuDMAuAv1q9ic-137" target="t-sDJAVJuDMAuAv1q9ic-137">
          <mxGeometry width="50" height="50" relative="1" as="geometry">
            <mxPoint x="236.72" y="-2900" as="sourcePoint" />
            <mxPoint x="286.72" y="-2950" as="targetPoint" />
          </mxGeometry>
        </mxCell>
        <mxCell id="t-sDJAVJuDMAuAv1q9ic-142" value="&lt;div&gt;&lt;b&gt;If all&lt;/b&gt;&lt;/div&gt;&lt;div&gt;transactions&lt;/div&gt;&lt;div&gt;&lt;b&gt;are OK&lt;br&gt;&lt;/b&gt;&lt;/div&gt;" style="text;html=1;align=center;verticalAlign=middle;resizable=0;points=[];autosize=1;strokeColor=none;fillColor=none;" vertex="1" parent="1">
          <mxGeometry y="-874" width="91" height="52" as="geometry" />
        </mxCell>
        <mxCell id="t-sDJAVJuDMAuAv1q9ic-143" value="" style="endArrow=classic;html=1;rounded=0;strokeWidth=2;" edge="1" parent="1">
          <mxGeometry width="50" height="50" relative="1" as="geometry">
            <mxPoint x="340.72" y="-2794" as="sourcePoint" />
            <mxPoint x="119.72" y="-2794" as="targetPoint" />
          </mxGeometry>
        </mxCell>
        <mxCell id="t-sDJAVJuDMAuAv1q9ic-144" value="&lt;b&gt;&lt;font style=&quot;font-size: 13px;&quot;&gt;Accommodate Transaction&lt;/font&gt;&lt;/b&gt;" style="text;html=1;align=center;verticalAlign=middle;resizable=0;points=[];autosize=1;strokeColor=none;fillColor=none;" vertex="1" parent="1">
          <mxGeometry x="120.22" y="-2820" width="195" height="26" as="geometry" />
        </mxCell>
        <mxCell id="t-sDJAVJuDMAuAv1q9ic-145" value="&lt;font style=&quot;font-size: 12px;&quot;&gt;&lt;b&gt;some are not acommodated&lt;br&gt;&lt;/b&gt;&lt;/font&gt;" style="html=1;verticalAlign=bottom;endArrow=open;dashed=1;endSize=8;edgeStyle=elbowEdgeStyle;elbow=vertical;curved=0;rounded=0;strokeWidth=2;" edge="1" parent="1">
          <mxGeometry x="-0.5294" y="-6" relative="1" as="geometry">
            <mxPoint x="782.72" y="-2814" as="sourcePoint" />
            <mxPoint x="340.72" y="-2814" as="targetPoint" />
            <Array as="points">
              <mxPoint x="712.72" y="-2814" />
            </Array>
            <mxPoint as="offset" />
          </mxGeometry>
        </mxCell>
        <mxCell id="t-sDJAVJuDMAuAv1q9ic-146" value="&lt;font style=&quot;font-size: 15px;&quot;&gt;&lt;b&gt;&lt;font style=&quot;font-size: 15px;&quot;&gt;&lt;u&gt;&lt;font style=&quot;font-size: 16px;&quot;&gt;&lt;font style=&quot;font-size: 17px;&quot;&gt;&lt;font style=&quot;font-size: 18px;&quot;&gt;&lt;font style=&quot;font-size: 19px;&quot;&gt;&lt;font style=&quot;font-size: 20px;&quot;&gt;&lt;font style=&quot;font-size: 21px;&quot;&gt;&lt;font style=&quot;font-size: 22px;&quot;&gt;&lt;font style=&quot;font-size: 23px;&quot;&gt;&lt;font style=&quot;font-size: 24px;&quot;&gt;Sequence Diagram&lt;/font&gt;&lt;/font&gt;&lt;/font&gt;&lt;/font&gt;&lt;/font&gt;&lt;/font&gt;&lt;/font&gt;&lt;/font&gt;&lt;/font&gt;&lt;/u&gt;&lt;/font&gt;&lt;/b&gt;&lt;/font&gt;" style="text;html=1;align=center;verticalAlign=middle;resizable=0;points=[];autosize=1;strokeColor=none;fillColor=none;" vertex="1" parent="1">
          <mxGeometry x="278" y="-3475" width="247" height="39" as="geometry" />
        </mxCell>
      </root>
    </mxGraphModel>
  </diagram>
</mxfile>
